#!OML:ASF F:\VICON\USERDATA\INSTALL\rory3\rory3.ASF
:FULLY-SPECIFIED
:DEGREES
805
root -1.1122 17.5265 5.12937 8.74891 15.7228 3.67759
lowerback 8.58566 1.14428 -2.27749
upperback 1.78562 1.3575 1.01872
thorax -3.03895 0.699175 2.18462
lowerneck -17.4053 8.11264 -6.26666
upperneck 34.4778 16.9129 -5.93364
head 15.1234 5.62572 1.61101
rclavicle 4.33351e-014 8.74653e-015
rhumerus -35.5219 -0.457574 -74.9293
rradius 48.2142
rwrist 15.3666
rhand -27.6707 4.75119
rfingers 7.12502
rthumb -1.06784 -25.2259
lclavicle 4.33351e-014 8.74653e-015
lhumerus -28.4629 8.48864 71.0216
lradius 44.3741
lwrist -3.55833
lhand -20.0779 27.5212
lfingers 7.12502
lthumb 6.26461 57.4085
rfemur -38.6682 7.4166 10.0892
rtibia 31.0969
rfoot -9.61467 -0.0904571
rtoes -4.28692
lfemur -12.0225 -11.9873 -28.3628
ltibia 26.9359
lfoot -4.87976 -33.8264
ltoes 26.8302
806
root -1.10479 17.5263 5.20126 8.78351 16.7116 3.66699
lowerback 8.47686 1.07884 -2.35459
upperback 1.80705 1.26948 1.09907
thorax -2.95481 0.655336 2.32309
lowerneck -17.5783 8.05734 -6.33961
upperneck 34.7051 16.8554 -5.73979
head 15.237 5.59643 1.70559
rclavicle -1.39149e-014 -2.14687e-014
rhumerus -35.6286 -1.05419 -74.7381
rradius 47.4656
rwrist 15.5287
rhand -27.496 4.7798
rfingers 7.12502
rthumb -0.899126 -25.1981
lclavicle -1.39149e-014 -2.14687e-014
lhumerus -28.6168 8.85818 70.8467
lradius 43.7189
lwrist -3.26304
lhand -20.0493 27.3203
lfingers 7.12502
lthumb 6.29223 57.2068
rfemur -38.5788 7.31591 10.18
rtibia 30.2675
rfoot -9.3421 0.386941
rtoes -3.77676
lfemur -11.7076 -12.1049 -28.2524
ltibia 26.8424
lfoot -3.94719 -34.2226
ltoes 28.4773
807
root -1.09842 17.5306 5.2744 8.77587 17.68 3.53887
lowerback 8.35094 1.01159 -2.33695
upperback 1.8207 1.18861 1.20818
thorax -2.86793 0.614328 2.43706
lowerneck -17.389 8.08603 -6.36312
upperneck 34.7072 16.8805 -5.70367
head 15.1874 5.62327 1.7169
rclavicle -5.60573e-014 5.56597e-015
rhumerus -35.7629 -1.546 -74.5938
rradius 46.6899
rwrist 15.7188
rhand -27.4706 4.61584
rfingers 7.12502
rthumb -0.874611 -25.3621
lclavicle -5.60573e-014 5.56597e-015
lhumerus -28.8798 9.2295 70.6545
lradius 43.1527
lwrist -2.92451
lhand -20.0619 26.9635
lfingers 7.12502
lthumb 6.28007 56.8504
rfemur -38.4705 7.40633 10.331
rtibia 29.5389
rfoot -9.2564 0.751274
rtoes -3.74653
lfemur -11.3647 -12.0265 -28.0315
ltibia 26.7451
lfoot -3.88134 -34.7771
ltoes 28.5498
808
root -1.08925 17.5302 5.35162 8.75957 18.6842 3.48983
lowerback 8.25275 0.933459 -2.39446
upperback 1.8021 1.08499 1.28884
thorax -2.82892 0.563381 2.56548
lowerneck -17.0293 8.11148 -6.1508
upperneck 34.6615 16.8725 -5.86315
head 15.1261 5.64908 1.5992
rclavicle 3.83654e-014 -1.43125e-014
rhumerus -35.9581 -1.94954 -74.5086
rradius 45.8921
rwrist 15.8678
rhand -27.6505 4.60101
rfingers 7.12502
rthumb -1.04839 -25.3762
lclavicle 3.83654e-014 -1.43125e-014
lhumerus -29.185 9.68892 70.4171
lradius 42.4248
lwrist -2.7626
lhand -19.8058 27.0271
lfingers 7.12502
lthumb 6.52727 56.9065
rfemur -38.328 7.52066 10.374
rtibia 28.941
rfoot -9.27971 1.02017
rtoes -5.14732
lfemur -11.0021 -12.1227 -27.9118
ltibia 26.7166
lfoot -3.95467 -35.2709
ltoes 28.1923
809
root -1.07843 17.5329 5.42547 8.81037 19.6851 3.62861
lowerback 8.18285 0.836378 -2.52109
upperback 1.78964 0.946472 1.26762
thorax -2.79581 0.49523 2.63039
lowerneck -16.8518 8.12031 -6.01857
upperneck 34.7288 16.854 -5.88019
head 15.1322 5.66218 1.56141
rclavicle 1.55052e-014 -1.74931e-014
rhumerus -36.1391 -2.41431 -74.4693
rradius 45.0803
rwrist 16.0637
rhand -27.5928 4.61297
rfingers 7.12502
rthumb -0.992635 -25.3645
lclavicle 1.55052e-014 -1.74931e-014
lhumerus -29.3663 10.1745 70.1191
lradius 41.6257
lwrist -2.75607
lhand -19.4698 27.4981
lfingers 7.12502
lthumb 6.85167 57.3672
rfemur -38.1521 7.69008 10.1325
rtibia 28.4318
rfoot -9.24049 1.41694
rtoes -4.67745
lfemur -10.7012 -12.29 -27.9785
ltibia 26.7607
lfoot -3.94888 -35.7122
ltoes 28.0505
810
root -1.06821 17.5306 5.49691 9.00539 20.6424 3.66146
lowerback 7.99302 0.76364 -2.60776
upperback 1.7503 0.848997 1.33182
thorax -2.7268 0.447115 2.75765
lowerneck -16.913 8.10892 -6.01866
upperneck 34.8648 16.8755 -5.85597
head 15.2092 5.66433 1.58319
rclavicle -4.37326e-015 -7.15625e-015
rhumerus -36.2403 -2.89135 -74.3262
rradius 44.1994
rwrist 16.291
rhand -27.4405 4.60861
rfingers 7.12502
rthumb -0.845537 -25.3695
lclavicle -4.37326e-015 -7.15625e-015
lhumerus -29.5804 10.7308 69.9692
lradius 40.9341
lwrist -2.72709
lhand -19.3798 27.802
lfingers 7.12502
lthumb 6.93855 57.6683
rfemur -38.1551 7.42874 10.2032
rtibia 28.0202
rfoot -8.71717 2.12955
rtoes -4.06902
lfemur -10.6436 -12.4181 -27.8854
ltibia 26.8427
lfoot -3.66474 -36.1728
ltoes 28.1389
811
root -1.05664 17.526 5.57014 9.17589 21.6048 3.68243
lowerback 7.85015 0.721787 -2.65205
upperback 1.67833 0.794266 1.37715
thorax -2.71932 0.421165 2.83613
lowerneck -16.8925 8.05512 -6.14486
upperneck 35.0278 16.7894 -5.63075
head 15.2381 5.63732 1.67983
rclavicle 6.75868e-015 3.97569e-015
rhumerus -36.4941 -3.39787 -74.175
rradius 43.4342
rwrist 16.4082
rhand -27.3329 4.46478
rfingers 7.12502
rthumb -0.741657 -25.5137
lclavicle 6.75868e-015 3.97569e-015
lhumerus -29.8765 11.2578 69.7987
lradius 40.1773
lwrist -2.75403
lhand -19.4475 27.3479
lfingers 7.12502
lthumb 6.8732 57.2163
rfemur -38.1508 7.22253 10.2892
rtibia 27.7491
rfoot -8.24871 2.92329
rtoes -3.79199
lfemur -10.5727 -12.4792 -27.7615
ltibia 26.9332
lfoot -3.42796 -36.5015
ltoes 28.0237
812
root -1.04317 17.5251 5.64677 9.1419 22.5675 3.65887
lowerback 7.79267 0.642914 -2.69673
upperback 1.702 0.690255 1.45509
thorax -2.65703 0.368906 2.9533
lowerneck -16.892 8.02837 -6.30184
upperneck 35.1673 16.7384 -5.3805
head 15.2541 5.62532 1.79753
rclavicle -6.4605e-014 1.59028e-015
rhumerus -36.6809 -3.74862 -74.0903
rradius 42.6566
rwrist 16.445
rhand -27.297 4.54273
rfingers 7.12502
rthumb -0.706904 -25.4358
lclavicle -6.4605e-014 1.59028e-015
lhumerus -30.1324 11.9934 69.5138
lradius 39.3612
lwrist -3.06074
lhand -18.9362 26.2569
lfingers 7.12502
lthumb 7.3667 56.1086
rfemur -37.8721 7.41011 10.2712
rtibia 27.5781
rfoot -7.88264 3.56557
rtoes -2.95375
lfemur -10.2943 -12.6598 -27.6168
ltibia 27.0635
lfoot -2.95462 -36.6767
ltoes 28.7645
813
root -1.02996 17.5241 5.72129 9.12643 23.5527 3.70136
lowerback 7.80432 0.596346 -2.7714
upperback 1.70687 0.624861 1.52676
thorax -2.65526 0.337207 3.07652
lowerneck -16.9602 8.00381 -6.48395
upperneck 35.5056 16.7189 -5.04985
head 15.3696 5.61657 1.96717
rclavicle -2.54444e-014 1.35174e-014
rhumerus -36.8728 -4.26233 -73.9251
rradius 41.8235
rwrist 16.56
rhand -27.1645 4.39924
rfingers 7.12502
rthumb -0.579004 -25.5797
lclavicle -2.54444e-014 1.35174e-014
lhumerus -30.3225 12.2902 69.4046
lradius 38.5238
lwrist -2.75279
lhand -19.0198 25.5425
lfingers 7.12502
lthumb 7.28608 55.397
rfemur -37.528 7.37481 10.298
rtibia 27.4761
rfoot -7.44638 4.05627
rtoes -3.99506
lfemur -10.0544 -12.7288 -27.5262
ltibia 27.2068
lfoot -1.88109 -37.1608
ltoes 30.4489
